<svg width="16" height="16" viewBox="0 0 16 16" fill="none" xmlns="http://www.w3.org/2000/svg">
<g clip-path="url(#clip0_977_1260)">
<path d="M15.0098 12.4607C15.0098 12.7987 14.8756 13.1229 14.6365 13.3619C14.3975 13.601 14.0734 13.7352 13.7353 13.7352H2.26474C1.92672 13.7352 1.60255 13.601 1.36353 13.3619C1.12451 13.1229 0.990234 12.7987 0.990234 12.4607V5.45092C0.990234 5.1129 1.12451 4.78873 1.36353 4.54971C1.60255 4.31069 1.92672 4.17641 2.26474 4.17641H4.81376L6.08827 2.26465H9.9118L11.1863 4.17641H13.7353C14.0734 4.17641 14.3975 4.31069 14.6365 4.54971C14.8756 4.78873 15.0098 5.1129 15.0098 5.45092V12.4607Z" stroke="#383838" stroke-width="1.5" stroke-linecap="round" stroke-linejoin="round"/>
<path d="M8.00019 11.1864C9.40798 11.1864 10.5492 10.0452 10.5492 8.6374C10.5492 7.22961 9.40798 6.08838 8.00019 6.08838C6.59241 6.08838 5.45117 7.22961 5.45117 8.6374C5.45117 10.0452 6.59241 11.1864 8.00019 11.1864Z" stroke="#383838" stroke-width="1.5" stroke-linecap="round" stroke-linejoin="round"/>
</g>
<defs>
<clipPath id="clip0_977_1260">
<rect width="15.2941" height="15.2941" fill="white" transform="translate(0.353027 0.353027)"/>
</clipPath>
</defs>
</svg>
