<svg width="39" height="42" viewBox="0 0 39 42" fill="none" xmlns="http://www.w3.org/2000/svg">
<g filter="url(#filter0_f_352_1519)">
<ellipse cx="19.5" cy="21" rx="15.5" ry="17" fill="white" fill-opacity="0.7"/>
</g>
<path d="M30.5751 18.564C30.5751 24.9506 26.4949 36.7036 19.6679 36.7036C12.8408 36.7036 8.27588 24.9506 8.27588 18.564C8.27588 12.1774 12.8408 7 19.6679 7C26.4949 7 30.5751 12.1774 30.5751 18.564Z" fill="#E6F0FF"/>
<path d="M11.1843 18.4569C11.1843 15.8862 13.412 13.8022 16.16 13.8022H22.6906C25.4387 13.8022 27.6663 15.8862 27.6663 18.4569V23.1116H16.16C13.412 23.1116 11.1843 21.0277 11.1843 18.4569Z" fill="#4383E4"/>
<path d="M22.6907 15.5479H16.1601C14.4426 15.5479 13.0503 16.8503 13.0503 18.457C13.0503 20.0637 14.4426 21.3662 16.1601 21.3662H22.6907C24.4082 21.3662 25.8005 20.0637 25.8005 18.457C25.8005 16.8503 24.4082 15.5479 22.6907 15.5479Z" fill="#BAD2F8"/>
<path d="M16.1601 19.9116C17.0189 19.9116 17.715 19.2604 17.715 18.457C17.715 17.6537 17.0189 17.0024 16.1601 17.0024C15.3014 17.0024 14.6052 17.6537 14.6052 18.457C14.6052 19.2604 15.3014 19.9116 16.1601 19.9116Z" fill="black"/>
<path d="M15.538 18.1661C15.7098 18.1661 15.849 18.0358 15.849 17.8751C15.849 17.7145 15.7098 17.5842 15.538 17.5842C15.3663 17.5842 15.2271 17.7145 15.2271 17.8751C15.2271 18.0358 15.3663 18.1661 15.538 18.1661Z" fill="white"/>
<path d="M23.0017 19.9116C23.8604 19.9116 24.5566 19.2604 24.5566 18.457C24.5566 17.6537 23.8604 17.0024 23.0017 17.0024C22.1429 17.0024 21.4468 17.6537 21.4468 18.457C21.4468 19.2604 22.1429 19.9116 23.0017 19.9116Z" fill="black"/>
<path d="M22.3798 18.1661C22.5516 18.1661 22.6908 18.0358 22.6908 17.8751C22.6908 17.7145 22.5516 17.5842 22.3798 17.5842C22.2081 17.5842 22.0688 17.7145 22.0688 17.8751C22.0688 18.0358 22.2081 18.1661 22.3798 18.1661Z" fill="white"/>
<defs>
<filter id="filter0_f_352_1519" x="0" y="0" width="39" height="42" filterUnits="userSpaceOnUse" color-interpolation-filters="sRGB">
<feFlood flood-opacity="0" result="BackgroundImageFix"/>
<feBlend mode="normal" in="SourceGraphic" in2="BackgroundImageFix" result="shape"/>
<feGaussianBlur stdDeviation="2" result="effect1_foregroundBlur_352_1519"/>
</filter>
</defs>
</svg>
