<svg width="141" height="103" viewBox="0 0 141 103" fill="none" xmlns="http://www.w3.org/2000/svg">
<path d="M124.374 82.2632C127.223 85.3601 123.973 90.1906 120.031 88.7185L107.295 83.9623C104.873 83.0577 103.933 80.1273 105.376 77.9821L108.908 72.7332C110.351 70.588 113.42 70.3552 115.17 72.2581L124.374 82.2632Z" fill="white"/>
<path fill-rule="evenodd" clip-rule="evenodd" d="M78.0374 89.323L78 89.4925C78.0587 89.5054 78.1173 89.5182 78.176 89.5308L78.0374 89.323ZM80.4533 89.9403C88.5577 91.1168 96.8482 89.3504 103.796 84.9125C111.447 80.0254 116.844 72.2991 118.798 63.4332C120.753 54.5673 119.106 45.2881 114.218 37.6369C109.608 30.4194 102.472 25.2082 94.2355 23C97.2521 27.9972 99.3797 33.4863 100.517 39.2233C101.803 45.7078 101.8 52.3821 100.506 58.8652C99.2127 65.3482 96.655 71.513 92.9791 77.0076C89.6124 82.0399 85.3681 86.4198 80.4533 89.9403Z" fill="white"/>
<path d="M95.4778 47.5905C95.6417 73.8741 74.4676 95.3139 48.1841 95.4778C21.9005 95.6417 0.46065 74.4676 0.296756 48.184C0.132862 21.9005 21.307 0.460644 47.5905 0.29675C73.8741 0.132856 95.314 21.307 95.4778 47.5905ZM28.6716 48.0071C28.7378 58.6197 37.3946 67.1692 48.0071 67.103C58.6197 67.0368 67.1692 58.38 67.103 47.7675C67.0368 37.1549 58.38 28.6054 47.7675 28.6716C37.1549 28.7378 28.6054 37.3946 28.6716 48.0071Z" fill="white"/>
</svg>
